<svg xmlns="http://www.w3.org/2000/svg" width="225" height="277" viewBox="0 0 59 73"><path d="M24.111 73.319c-.14-.097-.312-6.975-.352-14.154-.02-3.443-.001-4.038.125-4.038.118 0 .157.296.199 1.495.034 1 .095 1.542.182 1.634.147.154.548.153 9.4-.026 3.544-.071 5.348-.147 5.439-.226.291-.256.756-2.405.756-3.497 0-.775-.094-.8-.797-.211-.78.651-1.074.776-1.832.776-.772 0-1.238-.203-1.795-.781-.456-.475-.569-.785-.786-2.165a9.569 9.569 0 01-.117-2.237c.202-3.477 1.684-5.857 4.36-6.998 1.4-.598 2.17-.479 3.357.522l.276.232.5-.542c.474-.516 1.205-.907 1.694-.907.169 0 .172.034.042.41-.077.224-.461 1.145-.853 2.045-.834 1.914-.897 2.106-1.563 4.693-.544 2.117-.67 2.786-.836 4.474-.15 1.522-.293 2.496-.494 3.36-.2.861-.127.996.494.902.369-.056 7.74-.334 11.55-.435 1.162-.031 2.658-.09 3.323-.13.83-.05 1.403-.03 1.824.065.338.076.733.107.878.068l.265-.07V53.93c0-3.334-.016-3.657-.177-3.753-.11-.065-1.542-.081-3.749-.043-2.78.047-3.588.031-3.65-.074-.204-.35.14-.386 3.775-.405 2.005-.01 3.658-.063 3.71-.118.053-.056.082-1.4.066-3.093l-.027-2.993-1.444.032c-1.92.043-5.835.225-6.56.304-.473.052-.59.032-.642-.112-.042-.118.012-.209.166-.275.203-.088 4.505-.314 7.328-.387.557-.014 1.052-.069 1.1-.121.05-.053.056-1.2.015-2.551-.044-1.465-.035-2.583.023-2.772.113-.37.012-4.312-.114-4.445-.046-.049-3.864-.143-8.485-.21-9.91-.142-12.288-.217-12.342-.39-.021-.067.036-.153.128-.19.165-.067 10.087.08 16.908.25 2.675.067 3.643.058 3.737-.034.094-.093.132-.878.145-3.004.017-2.714.006-2.887-.179-3.037-.166-.134-.617-.148-2.878-.09-1.474.037-5.024.09-7.888.118-2.864.028-6.188.08-7.387.117-1.623.05-2.198.034-2.254-.062-.042-.07-.035-.172.014-.224.05-.053 2.155-.12 4.678-.152 9.27-.113 12.973-.175 14.352-.238l1.411-.065.272.287c.258.273.27.336.24 1.24-.016.523.008 10.947.055 23.164.07 18.547.062 22.23-.054 22.328-.298.25-.913.26-26.28.417-5.019.031-9.182.017-9.252-.03zm32.106-.683c1.981.02 3.025-.008 3.068-.082.127-.218.14-6.147.013-6.28-.163-.174-7.829-.056-20.314.312-5.445.16-10.925.292-12.178.292-1.253 0-2.335.037-2.404.082-.18.118-.162 5.433.019 5.664.11.142 1.864.15 14.46.072 7.883-.05 15.684-.076 17.336-.06zM38.21 66.085c6.267-.179 13.553-.353 16.19-.389 2.637-.035 4.834-.102 4.881-.148.11-.107.128-7.12.02-7.307-.06-.1-.268-.12-.764-.074-.375.036-4.465.118-9.087.183-4.622.064-8.498.158-8.614.207-.14.06-.339.436-.604 1.146-.218.58-.578 1.345-.8 1.698-.577.913-1.776 2.058-2.662 2.54-1.082.59-1.772.545-2.534-.166-.542-.505-.824-1.032-.922-1.721-.07-.499.08-1.15.24-1.045.048.032.268.384.488.782.725 1.312 1.323 1.562 2.217.926 1.154-.82 2.873-3.524 2.57-4.042-.066-.114-1.125-.125-5.532-.057-2.998.046-6.26.114-7.25.151l-1.8.068-.073.273c-.105.395.022 7.123.137 7.278.07.094.436.115 1.3.076.663-.03 6.332-.2 12.6-.38zm.682-12.989c.48-.491.652-.93 1.445-3.698.37-1.29.878-2.863 1.129-3.495.51-1.284.533-1.42.276-1.658-.607-.563-1.443-.691-2.026-.31-.69.45-1.891 1.919-2.334 2.85-.576 1.214-1.028 2.719-1.028 3.426 0 1.201.42 2.587.94 3.108.376.375 1.116.272 1.598-.223zM10.06 61.441l-.825-.278c-1.418-.478-2.238-1.135-3.691-2.96-1.511-1.898-2.513-3.838-3.362-6.513-.805-2.537-.837-2.764-.828-5.784l.008-2.673.487-1.609c.288-.951.63-1.842.838-2.182 1.358-2.223 2.537-3.638 3.883-4.66.747-.568.97-.798.996-1.023l.032-.29-1.58.011c-1.66.012-2.241-.108-3.296-.677-1.26-.68-2.093-2.246-2.52-4.738-.45-2.62-.116-7.856.725-11.358.297-1.24.499-1.799 1.1-3.046.404-.84.94-1.856 1.19-2.256.56-.899 1.648-2.061 2.756-2.946.78-.624 1.108-.814 2.657-1.541.475-.223.658-.391.994-.914.825-1.286 1.519-2.044 2.756-3.013 1.426-1.116 2.583-1.747 4.33-2.36 2.206-.775 2.984-.818 4.158-.23 1.23.616 2.105 1.729 2.795 3.556.746 1.979.878 3.925.47 6.933-.24 1.771-1.85 6.267-3.665 10.233-.27.59-.383.953-.319 1.021.064.068.7-.03 1.785-.277.927-.21 1.985-.415 2.352-.456.94-.104 1.174-.236 2.221-1.257 1.275-1.242 2.008-1.803 3.086-2.361.85-.44 1.372-.58 1.533-.408.125.131-.228.661-.72 1.08-.975.832-2.404 2.263-2.404 2.409 0 .17.151.213 1.278.37 1.096.15 1.743.338 3.208.925 2.048.822 3.768 2.257 4.434 3.7.555 1.203.875 2.627.947 4.217.058 1.29.043 1.444-.27 2.768-.887 3.752-1.827 5.705-3.674 7.633-1.376 1.436-2.67 2.298-4.427 2.949-1.26.467-2.605.664-4.538.667-1.422.002-1.454-.002-2.165-.359-.397-.199-1.179-.683-1.737-1.076-.682-.48-1.048-.679-1.118-.605-.107.114-.244.836-.605 3.188-.345 2.253-.588 3.254-1.498 6.177-.865 2.774-1.617 4.654-2.346 5.86-.576.953-1.839 2.592-2.428 3.153-.841.8-2.229 1.262-3.003 1zm1.993-2.882c1.099-1.198 1.831-2.312 2.628-3.993.646-1.363.904-2.166 1.607-5.004.677-2.732 1.01-4.38 1.3-6.438.212-1.495.252-1.798.573-4.256.435-3.343 1.464-7.721 2.4-10.214.479-1.275 1.492-3.328 2.228-4.515.88-1.418.848-1.462-.77-1.096-1.456.33-2.61.668-2.993.878-.168.092-.66.727-1.178 1.523-2.103 3.229-3.34 4.434-6.813 6.632-.715.452-.576.563.787.629 1.075.052 1.23.087 1.745.393.954.567 1.53 1.747 1.624 3.33.1 1.689-.278 2.955-1.229 4.108-.695.843-1.116 1.153-1.888 1.39-1.204.371-1.967.003-2.816-1.362-.634-1.018-.883-1.628-1.112-2.72l-.204-.968c-.03-.143-.13-.245-.237-.245-.695 0-2.66 4.085-3.06 6.364-.33 1.882-.355 5.17-.052 6.943.327 1.906 1.54 5.137 2.503 6.662.477.755 2.346 2.726 2.809 2.961.737.374 1 .252 2.148-1.002zM27.28 42.587c1.495-.36 1.83-.498 2.849-1.17 1.457-.96 2.22-2.087 3.235-4.784.763-2.027.934-2.827 1.03-4.804.13-2.714-.11-4.575-.781-6.074-.284-.633-.523-.952-1.254-1.673-1.428-1.41-2.31-1.78-4.268-1.793-1.427-.01-1.327-.074-2.355 1.524-1.17 1.818-2.11 3.98-3.316 7.629-.679 2.05-2.182 8.276-2.132 8.826.027.298.153.434.908.982.893.647 1.822 1.19 2.474 1.444.621.242 2.38.19 3.61-.107zm-15.06-1.916c.573-.31 1.426-1.23 1.661-1.793.112-.267.254-.87.317-1.34.096-.717.087-.965-.056-1.555-.27-1.116-.54-1.543-1.2-1.892-.472-.25-.713-.304-1.4-.314-.479-.006-.928.045-1.065.123-.236.134-.237.141-.184 1.95.047 1.615.09 1.95.377 3.004.34 1.244.449 1.527.708 1.842.201.244.351.24.841-.025zm-4.606-8.565c.298-.15.418-.33.747-1.128.664-1.609 1.271-2.59 2.266-3.668.517-.56 1.315-1.276 1.804-1.617 1.21-.845 3.252-1.922 4.486-2.366.85-.306 1.104-.451 1.444-.828.54-.599 1.236-1.925 2.097-3.995l1.04-2.497c1.162-2.783 1.613-4.528 1.765-6.84.153-2.31.008-3.507-.573-4.729-.898-1.891-2.756-2.773-4.605-2.185-.984.313-2.821 1.254-3.798 1.946-.848.6-2.104 1.908-2.037 2.121.023.074.34.243.705.375 1.129.409 1.72 1.441 1.45 2.534-.41 1.653-1.726 3.259-3.409 4.157-.311.166-.703.258-1.237.29-.665.038-.85.007-1.24-.203-.742-.403-.877-.689-.918-1.948-.026-.79-.072-1.084-.168-1.084-.348 0-1.757 2.188-2.455 3.811-.432 1.007-1.34 3.614-1.66 4.768-.667 2.402-1.198 5.834-1.198 7.742 0 1.543.191 2.465.81 3.888.445 1.024.741 1.326 1.543 1.573.66.202 2.653.128 3.14-.117zm4.46-1.973c1.66-1.103 3.214-2.672 4.198-4.237.287-.456.369-.832.182-.832-.057 0-.53.18-1.05.401-1.93.817-3.453 2.23-4.206 3.9-.71 1.572-.548 1.714.875.768zm.18-18.966c.388-.405.721-.89.915-1.328.275-.62.294-.735.194-1.13-.131-.515-.484-.819-1.16-1-.331-.087-.531-.091-.672-.011-.25.14-.758 1.403-1.065 2.64-.206.83-.215.968-.087 1.252.08.175.258.378.397.451.332.175.663-.02 1.478-.874zm13.035 44.019c-.481-.163-.936-.6-1.242-1.195-1.214-2.362.245-7.328 2.633-8.962a6.298 6.298 0 012.307-.922c.539-.087 1.82.194 2.205.484.508.384.665.305.986-.493.337-.84.491-1.029.835-1.029.178 0 .284.085.355.282.113.315.06.49-1.062 3.548-.92 2.508-1.21 3.875-1.208 5.718.001 1.209.123 1.516.619 1.56.343.03.743-.171 1.776-.895.453-.317.365.028-.21.83-.582.81-1.171 1.179-1.882 1.179-.362 0-.526-.059-.687-.246-.41-.475-.487-.77-.513-1.937a246.79 246.79 0 00-.03-1.282c-.008-.324-.334-.09-.68.491-.477.8-1.358 1.762-2.198 2.402-.545.416-.747.507-1.186.533-.29.017-.659-.013-.818-.067zm1.249-1.142c.306-.171 1.321-1.257 1.894-2.027.393-.528 1.67-2.704 2.035-3.467.342-.715.938-2.322.938-2.528 0-.2-.43-.67-.792-.866-.39-.212-1.138-.144-1.74.158-1.12.56-2.7 3.042-3.345 5.254-.353 1.21-.25 2.846.215 3.37.269.302.41.321.795.106zm19.662 1.1c-.62-.215-1.362-.706-1.6-1.06-.488-.726-.649-1.483-.646-3.05.002-1.383.026-1.555.39-2.836.44-1.547.694-2.13 1.407-3.225.861-1.323 1.587-1.904 2.38-1.904.595 0 1.018.203 1.56.749.582.584.688.869.688 1.843 0 .753-.035.916-.291 1.342-.678 1.128-2.548 2.455-3.665 2.6-.716.093-.806.293-.764 1.712.038 1.314.3 1.983.97 2.482 1.035.77 1.738.472 3.477-1.468.658-.734 1.218-1.312 1.245-1.284.026.028.008.237-.04.466-.126.587-.74 1.523-1.593 2.426-.563.597-.873.83-1.35 1.02-.764.304-1.62.378-2.168.188zm1.197-6.952c.976-.624 1.578-1.211 1.836-1.791.27-.61.273-.827.015-1.362-.267-.553-.671-.879-1.092-.879-.283 0-.413.095-.79.573-.445.566-1.067 1.612-1.29 2.168-.168.42-.267 1.251-.189 1.582.062.26.103.281.436.224.203-.035.686-.266 1.074-.515zm-10.472-9.7c-.136-.235.412-.307 2.42-.318 1.163-.006 2.88-.038 3.816-.07 4.854-.17 15.235-.391 15.535-.331.418.082.448.238.062.318-.156.032-1.792.087-3.635.122-1.844.034-6.043.134-9.333.221-7.016.187-8.782.199-8.865.057zm-3.612-20.835c-.493-.231-.877-1.025-.877-1.812 0-.532.388-2.389.741-3.549.119-.39.523-1.47.897-2.4.571-1.418.68-1.789.676-2.292-.006-.705-.281-1.388-.628-1.555-.59-.284-1.873.496-2.68 1.63-1.347 1.893-2.899 6.153-3.279 9-.037.28-.13.565-.208.633-.084.074-.442.11-.896.091-.863-.037-.949-.143-.672-.837.159-.398 1.537-5.534 1.921-7.161a8.664 8.664 0 00.208-1.833c.002-.875-.02-.984-.251-1.228a.8.8 0 00-.6-.267c-.412 0-1.345.566-2.025 1.23-.369.36-.478.42-.504.276-.086-.472.969-1.806 1.765-2.234.393-.21.618-.264.926-.22.76.108 1.647 1.12 1.812 2.071.05.288.126.558.167.6.042.042.22-.12.395-.36.583-.796 1.872-2.069 2.403-2.37.747-.426 1.797-.667 2.292-.526.808.23 1.177.97 1.228 2.46l.037 1.091-.787 2.565c-1.145 3.729-1.293 4.254-1.36 4.825-.078.683.143 1.067.616 1.067.346 0 1.422-.489 1.948-.886.388-.291.478-.194.263.283-.26.58-.855 1.212-1.384 1.476-.523.26-1.791.397-2.144.232zm7.27-.079a2.233 2.233 0 01-1.201-1.446c-.212-.77-.211-2.64 0-3.805.617-3.386 1.638-5.266 3.467-6.387.568-.348.76-.41 1.282-.41 1.245 0 2.028.75 2.104 2.014.05.814-.066 1.092-.806 1.95-.63.73-1.564 1.372-2.71 1.865-1.372.591-1.404.613-1.528 1.037-.063.215-.137.98-.165 1.701-.057 1.494.109 2.203.61 2.599.247.194.328.205.678.094.22-.07 1.068-.592 1.886-1.161 1.664-1.158 2.254-1.52 2.336-1.434.03.032-.125.31-.345.62-.558.78-2.411 2.335-3.126 2.62-.76.303-1.995.375-2.482.143zm2.916-7.5c.685-.324 1.76-1.438 1.938-2.008.223-.715-.376-1.666-1.049-1.666-.604 0-1.758 1.541-2.354 3.145-.232.623-.213.75.131.885.256.1.511.032 1.334-.357z" fill="#0a0a0a"/><path d="M4.37 32.067c-.547-.196-.777-.467-1.323-1.556-.616-1.227-.666-1.463-.728-3.402-.148-4.688 1.81-11.853 4.242-15.516.793-1.194.982-1.114 1.008.423.027 1.577 1.741 2.243 3.536 1.374 1.639-.793 3.472-3.326 3.47-4.793-.002-.68-.683-1.543-1.537-1.95l-.825-.391.966-.938c1.66-1.61 4.517-3.065 6.02-3.065 1.631 0 2.73.792 3.539 2.551.389.845.432 1.205.408 3.402-.038 3.411-.809 6.044-3.4 11.608-1.199 2.575-1.46 2.856-3.407 3.665-3.743 1.554-6.08 3.571-7.626 6.579-.522 1.016-1.029 1.898-1.127 1.958-.394.244-2.583.278-3.216.05z" fill="#bff5f9"/><path d="M10.644 11.853c-.319-.319-.283-.872.145-2.26.496-1.605.76-1.948 1.381-1.793.685.172 1.082.627 1.082 1.237 0 .629-.965 2.141-1.7 2.665-.625.445-.616.443-.908.151z" fill="#6ed0d6"/><path d="M11 30.081c.672-1.78 2.326-3.52 4.18-4.397.643-.304 1.21-.513 1.259-.464.17.17-1.322 2.135-2.411 3.174-1.022.974-2.74 2.207-3.076 2.207-.081 0-.06-.234.049-.52z" fill="#99bee7"/><path d="M22.953 42.241a29.096 29.096 0 01-1.677-1.062l-.889-.612.108-.915c.31-2.62 2.436-9.858 3.796-12.925.79-1.783 2.226-4.05 2.653-4.187.648-.21 2.722-.082 3.425.211 1.144.478 2.855 2.28 3.305 3.48.547 1.46.761 3.828.556 6.159-.177 2.023-.58 3.446-1.61 5.705-1.383 3.032-3.924 4.597-7.462 4.597-1.147 0-1.567-.086-2.205-.45z" fill="#c9ddf2"/><path d="M10.562 11.56c-.097-.443.351-2.385.71-3.08.42-.81 1.474-.73 1.804.139.23.602-.146 1.488-1.056 2.495-.739.818-1.337 1.001-1.458.446zm.424 18.71c.005-.43 1.226-2.162 2.118-3.004.972-.919 2.91-2.093 3.114-1.888.052.052-.162.461-.475.91-1.23 1.766-4.766 4.726-4.757 3.982z" fill="#bff5f9"/><path d="M24.34 65.356c-.068-.561-.124-2.22-.125-3.686l-.002-2.665 1.446-.123c.796-.067 4.07-.122 7.276-.122 4.54 0 5.83.052 5.829.236-.004.458-1.173 2.272-1.993 3.092-1.218 1.218-1.86 1.077-2.832-.624-.433-.757-.654-.637-.654.356 0 1.323 1.117 2.61 2.266 2.61.585 0 1.68-.614 2.701-1.514.663-.585 1.131-1.264 1.756-2.55l.853-1.751 6.559-.115c3.607-.063 7.72-.16 9.138-.213l2.58-.097.132 1.323c.074.729.073 2.376-.002 3.66l-.134 2.337-6.452.132c-3.548.072-9.045.208-12.216.302-3.17.094-8.068.23-10.884.302l-5.12.131zm1.338 7.239l-1.276-.056v-5.411l.993-.119c.545-.065 2.267-.121 3.827-.124 1.559-.003 7.172-.13 12.473-.281 5.3-.152 11.398-.278 13.548-.28l3.91-.004.131.876c.13.866.017 5.11-.14 5.267-.093.093-31.523.217-33.466.132z" fill="#e6e6e6"/></svg>